<svg xmlns="http://www.w3.org/2000/svg" width="22.124" height="24.382" viewBox="0 0 22.124 24.382">
  <g id="Group_53640" data-name="Group 53640" transform="translate(-1579.956 -170.949)">
    <g id="Icon_feather-lock" data-name="Icon feather-lock" transform="translate(1580.856 171.849)">
      <path id="Path_44105" data-name="Path 44105" d="M6.758,16.5H22.566a2.258,2.258,0,0,1,2.258,2.258v7.9a2.258,2.258,0,0,1-2.258,2.258H6.758A2.258,2.258,0,0,1,4.5,26.662v-7.9A2.258,2.258,0,0,1,6.758,16.5Z" transform="translate(-4.5 -6.338)" fill="none" stroke="#132766" stroke-linecap="round" stroke-linejoin="round" stroke-width="1.8"/>
      <path id="Path_44106" data-name="Path 44106" d="M10.5,13.162V8.646a5.646,5.646,0,0,1,11.291,0v4.516" transform="translate(-5.984 -3)" fill="none" stroke="#132766" stroke-linecap="round" stroke-linejoin="round" stroke-width="1.8"/>
    </g>
    <g id="Ellipse_715" data-name="Ellipse 715" transform="translate(1587 185)" fill="#fff" stroke="#132766" stroke-width="1.5">
      <circle cx="3.5" cy="3.5" r="3.5" stroke="none"/>
      <circle cx="3.5" cy="3.5" r="2.75" fill="none"/>
    </g>
  </g>
</svg>
